# Blender v2.79 (sub 6) OBJ File: ''
# www.blender.org
mtllib notebook.mtl
o Object_21_Mesh_16
v -0.064966 0.083045 0.377443
v 0.012790 0.083045 0.394178
v -0.064966 0.188346 0.377443
v 0.012790 0.188346 0.394178
vt 0.000000 0.000000
vt 1.000000 0.000000
vt 0.000000 1.000000
vt 1.000000 1.000000
vn -0.2104 -0.0000 0.9776
usemtl Material_16
s off
f 1/1/1 2/2/1 3/3/1
f 2/2/1 4/4/1 3/3/1
o Object_20_Mesh_15
v 0.020064 0.098365 0.391760
v 0.124004 0.098365 0.414131
v 0.020064 0.177866 0.391760
v 0.124004 0.177866 0.414131
vt 0.000000 0.000000
vt 1.000000 0.000000
vt 0.000000 1.000000
vt 1.000000 1.000000
vn -0.2104 0.0000 0.9776
usemtl Material_15
s off
f 5/5/2 6/6/2 7/7/2
f 6/6/2 8/8/2 7/7/2
o Object_19_Mesh_14
v 0.148807 0.129137 0.417285
v 0.101098 0.126999 0.407016
v 0.150610 0.087028 0.417673
v 0.102901 0.084890 0.407404
vt 0.000000 0.000000
vt 1.000000 0.000000
vt 0.000000 1.000000
vt 1.000000 1.000000
vn -0.2104 0.0000 0.9776
usemtl Material_14
s off
f 9/9/3 10/10/3 11/11/3
f 10/10/3 12/12/3 11/11/3
o Object_18_Mesh_13
v 0.101922 0.143441 0.407292
v 0.145003 0.143441 0.416564
v 0.101922 0.184612 0.407292
v 0.145003 0.184612 0.416564
vt 0.000000 0.000000
vt 1.000000 0.000000
vt 0.000000 1.000000
vt 1.000000 1.000000
vn -0.2104 0.0000 0.9776
usemtl Material_13
s off
f 13/13/4 14/14/4 15/15/4
f 14/14/4 16/16/4 15/15/4
o Object_17_Mesh_12
v 0.143256 0.106036 0.415880
v 0.143256 0.150106 0.415880
v 0.102049 0.106036 0.407011
v 0.102049 0.150106 0.407011
vt 0.000000 0.000000
vt 1.000000 0.000000
vt 0.000000 1.000000
vt 1.000000 1.000000
vn -0.2104 0.0000 0.9776
usemtl Material_12
s off
f 17/17/5 18/18/5 19/19/5
f 18/18/5 20/20/5 19/19/5
o Object_15_Mesh_11
v -0.109660 0.266059 0.266059
v 0.188348 0.266059 0.330992
v -0.109660 -0.201941 0.266059
v 0.188347 -0.201941 0.330992
vt 0.000000 0.000000
vt 1.000000 0.000000
vt 0.000000 1.000000
vt 1.000000 1.000000
vn 0.2129 0.0000 -0.9771
usemtl Material_11
s off
f 21/21/6 22/22/6 23/23/6
f 22/22/6 24/24/6 23/23/6
o Object_14_Mesh_10
v -0.128527 0.260900 0.353620
v 0.169481 0.260900 0.418554
v -0.128527 -0.207100 0.353620
v 0.169481 -0.207100 0.418554
vt 0.000000 0.000000
vt 1.000000 0.000000
vt 0.000000 1.000000
vt 1.000000 1.000000
vn 0.2129 0.0000 -0.9771
usemtl Material_10
s off
f 25/25/7 26/26/7 27/27/7
f 26/26/7 28/28/7 27/27/7
o Object_13_Mesh_9
v -0.100355 -0.173967 0.344557
v -0.084922 0.226898 0.273730
v -0.084922 -0.173967 0.273730
v -0.100355 0.226898 0.344557
v 0.161034 -0.173967 0.327322
v 0.145601 0.226898 0.398150
v 0.145601 -0.173967 0.398150
v 0.161034 0.226898 0.327322
v 0.145601 -0.173967 0.398150
v -0.100355 0.226898 0.344557
v -0.100355 -0.173967 0.344557
v 0.145601 0.226898 0.398150
v -0.084922 -0.173967 0.273730
v 0.161034 0.226898 0.327322
v 0.161034 -0.173967 0.327322
v -0.084922 -0.173967 0.273730
v -0.084922 0.226898 0.273730
v 0.161034 0.226898 0.327322
v -0.084922 -0.173967 0.273730
v 0.145601 -0.173967 0.398150
v -0.100355 -0.173967 0.344557
v -0.084922 -0.173967 0.273730
v 0.161034 -0.173967 0.327322
v 0.145601 -0.173967 0.398150
v 0.161034 0.226898 0.327322
v -0.100355 0.226898 0.344557
v 0.145601 0.226898 0.398150
v -0.084922 0.226898 0.273730
vt 0.254047 0.344954
vt 0.468432 0.138743
vt 0.000316 0.000032
vt 0.491021 0.363662
vt 0.626050 0.752925
vt 0.338659 0.994121
vt 0.719431 0.999837
vt 0.399150 0.618141
vt 0.221819 0.668596
vt 0.491021 0.363662
vt 0.254047 0.344954
vt 0.665500 0.524707
vt 0.858400 0.558006
vt 0.399150 0.618141
vt 0.626050 0.752925
vt 0.000316 0.000032
vt 0.468432 0.138743
vt 0.860468 0.021120
vt 0.000316 0.000032
vt 0.221819 0.668596
vt 0.254047 0.344954
vt 0.858400 0.558006
vt 0.626050 0.752925
vt 0.719431 0.999837
vt 0.860468 0.021120
vt 0.491021 0.363662
vt 0.665500 0.524707
vt 0.468432 0.138743
vn -0.9771 0.0000 -0.2129
vn 0.9771 -0.0000 0.2129
vn -0.2129 -0.0000 0.9771
vn 0.2129 0.0000 -0.9771
vn -0.0000 -1.0000 0.0000
vn 0.0000 1.0000 0.0000
usemtl Material_9_COLOR_0
s off
f 29/29/8 30/30/8 31/31/8
f 29/29/8 32/32/8 30/30/8
f 33/33/9 34/34/9 35/35/9
f 33/33/9 36/36/9 34/34/9
f 37/37/10 38/38/10 39/39/10
f 37/37/10 40/40/10 38/38/10
f 41/41/11 42/42/11 43/43/11
f 44/44/11 45/45/11 46/46/11
f 47/47/12 48/48/12 49/49/12
f 50/50/12 51/51/12 52/52/12
f 53/53/13 54/54/13 55/55/13
f 53/53/13 56/56/13 54/54/13
o Object_11_Mesh_8
v -0.093307 0.261340 0.271902
v -0.125201 -0.200848 0.264953
v -0.125201 0.261340 0.264953
v -0.093307 -0.200848 0.271902
v -0.146019 0.261340 0.360494
v -0.114125 -0.200848 0.367443
v -0.114125 0.261340 0.367443
v -0.146019 -0.200848 0.360494
v -0.114125 0.261340 0.367443
v -0.093307 -0.200848 0.271902
v -0.093307 0.261340 0.271902
v -0.114125 -0.200848 0.367443
v -0.125201 0.261340 0.264953
v -0.146019 -0.200848 0.360494
v -0.146019 0.261340 0.360494
v -0.125201 0.261340 0.264953
v -0.125201 -0.200848 0.264953
v -0.146019 -0.200848 0.360494
v -0.125201 0.261340 0.264953
v -0.114125 0.261340 0.367443
v -0.093307 0.261340 0.271902
v -0.125201 0.261340 0.264953
v -0.146019 0.261340 0.360494
v -0.114125 0.261340 0.367443
v -0.146019 -0.200848 0.360494
v -0.093307 -0.200848 0.271902
v -0.114125 -0.200848 0.367443
v -0.125201 -0.200848 0.264953
vt 0.254047 0.344954
vt 0.468432 0.138743
vt 0.000316 0.000032
vt 0.491021 0.363662
vt 0.626050 0.752925
vt 0.338659 0.994121
vt 0.719431 0.999837
vt 0.399150 0.618141
vt 0.221819 0.668596
vt 0.491021 0.363662
vt 0.254047 0.344954
vt 0.665500 0.524707
vt 0.858400 0.558006
vt 0.399150 0.618141
vt 0.626050 0.752925
vt 0.000316 0.000032
vt 0.468432 0.138743
vt 0.860468 0.021120
vt 0.000316 0.000032
vt 0.221819 0.668596
vt 0.254047 0.344954
vt 0.858400 0.558006
vt 0.626050 0.752925
vt 0.719431 0.999837
vt 0.860468 0.021120
vt 0.491021 0.363662
vt 0.665500 0.524707
vt 0.468432 0.138743
vn 0.2129 0.0000 -0.9771
vn -0.2129 -0.0000 0.9771
vn 0.9771 -0.0000 0.2129
vn -0.9771 0.0000 -0.2129
vn 0.0000 1.0000 0.0000
vn 0.0000 -1.0000 0.0000
usemtl Material_8_COLOR_0
s off
f 57/57/14 58/58/14 59/59/14
f 57/57/14 60/60/14 58/58/14
f 61/61/15 62/62/15 63/63/15
f 61/61/15 64/64/15 62/62/15
f 65/65/16 66/66/16 67/67/16
f 65/65/16 68/68/16 66/66/16
f 69/69/17 70/70/17 71/71/17
f 72/72/17 73/73/17 74/74/17
f 75/75/18 76/76/18 77/77/18
f 78/78/18 79/79/18 80/80/18
f 81/81/19 82/82/19 83/83/19
f 81/81/19 84/84/19 82/82/19
o Object_9_Mesh_7
v -0.019772 0.054282 0.385796
v 0.059803 0.054282 0.402922
v -0.019772 0.225693 0.385796
v 0.059803 0.225693 0.402922
vt 0.000000 0.000000
vt 1.000000 0.000000
vt 0.000000 1.000000
vt 1.000000 1.000000
vn -0.2104 -0.0000 0.9776
usemtl Material_7
s off
f 85/85/20 86/86/20 87/87/20
f 86/86/20 88/88/20 87/87/20
o Object_8_Mesh_6
v 0.015133 0.052369 0.391872
v 0.095657 0.052369 0.409203
v 0.015133 0.226682 0.391872
v 0.095657 0.226682 0.409203
vt 0.000000 0.000000
vt 1.000000 0.000000
vt 0.000000 1.000000
vt 1.000000 1.000000
vn -0.2104 0.0000 0.9776
usemtl Material_6
s off
f 89/89/21 90/90/21 91/91/21
f 90/90/21 92/92/21 91/91/21
o Object_7_Mesh_5
v -0.038372 0.148142 0.381271
v 0.079587 0.148142 0.406660
v -0.038372 0.228582 0.381271
v 0.079587 0.228582 0.406660
vt 0.000000 0.000000
vt 1.000000 0.000000
vt 0.000000 1.000000
vt 1.000000 1.000000
vn -0.2104 -0.0000 0.9776
usemtl Material_5
s off
f 93/93/22 94/94/22 95/95/22
f 94/94/22 96/96/22 95/95/22
o Object_6_Mesh_4
v 0.016312 0.146252 0.390973
v 0.126807 0.146252 0.414755
v 0.016312 0.227668 0.390973
v 0.126807 0.227668 0.414755
vt 0.000000 0.000000
vt 1.000000 0.000000
vt 0.000000 1.000000
vt 1.000000 1.000000
vn -0.2104 0.0000 0.9776
usemtl Material_4
s off
f 97/97/23 98/98/23 99/99/23
f 98/98/23 100/100/23 99/99/23
o Object_5_Mesh_3
v 0.013346 0.052370 0.391027
v 0.120092 0.052370 0.414002
v 0.013346 0.132826 0.391027
v 0.120092 0.132826 0.414002
vt 0.000000 0.000000
vt 1.000000 0.000000
vt 0.000000 1.000000
vt 1.000000 1.000000
vn -0.2104 0.0000 0.9776
usemtl Material_3
s off
f 101/101/24 102/102/24 103/103/24
f 102/102/24 104/104/24 103/103/24
o Object_4_Mesh_2
v -0.095193 0.046618 0.372607
v -0.014710 0.046618 0.389930
v -0.095193 0.233287 0.372607
v -0.014710 0.233287 0.389930
vt 0.000000 0.000000
vt 1.000000 0.000000
vt 0.000000 1.000000
vt 1.000000 1.000000
vn -0.2104 -0.0000 0.9776
usemtl Material_2
s off
f 105/105/25 106/106/25 107/107/25
f 106/106/25 108/108/25 107/107/25
o Object_3_Mesh_1
v -0.124315 0.047574 0.366989
v -0.017636 0.047574 0.389949
v -0.124315 0.231358 0.366989
v -0.017636 0.231358 0.389949
vt 0.000000 0.000000
vt 1.000000 0.000000
vt 0.000000 1.000000
vt 1.000000 1.000000
vn -0.2104 -0.0000 0.9776
usemtl Material_1
s off
f 109/109/26 110/110/26 111/111/26
f 110/110/26 112/112/26 111/111/26
o Object_2_Mesh_0
v -0.127046 0.046639 0.366407
v -0.047510 0.046639 0.383526
v -0.127046 0.225627 0.366407
v -0.047510 0.225627 0.383526
vt 0.000000 0.000000
vt 1.000000 0.000000
vt 0.000000 1.000000
vt 1.000000 1.000000
vn -0.2104 -0.0000 0.9776
usemtl Material_0
s off
f 113/113/27 114/114/27 115/115/27
f 114/114/27 116/116/27 115/115/27
